<svg width="512" height="512" viewBox="0 0 512 512" fill="none" xmlns="http://www.w3.org/2000/svg">
  <!-- Background Circle with Gradient -->
  <circle cx="256" cy="256" r="256" fill="url(#gradient)"/>
  
  <!-- Shopping Cart -->
  <path d="M180 380C168.954 380 160 388.954 160 400C160 411.046 168.954 420 180 420C191.046 420 200 411.046 200 400C200 388.954 191.046 380 180 380Z" fill="white"/>
  <path d="M340 380C328.954 380 320 388.954 320 400C320 411.046 328.954 420 340 420C351.046 420 360 411.046 360 400C360 388.954 351.046 380 340 380Z" fill="white"/>
  <path d="M120 100C120 94.4772 124.477 90 130 90H160C164.729 90 168.729 93.1709 169.717 97.7639L172.8 112H380C385.304 112 389.839 115.446 391.447 120.485L416.447 200.485C417.489 203.563 417.149 206.94 415.51 209.757C413.871 212.574 411.087 214.543 407.938 215.175L191.938 257.175C187.505 257.998 182.978 256.019 180.553 252.243C178.128 248.467 178.281 243.601 180.938 239.975L336.8 32H320L191.283 229.442L180.283 183.236L172.283 145.236L165.8 118H130C124.477 118 120 113.523 120 108V100Z" fill="white" stroke="white" stroke-width="8" stroke-linecap="round" stroke-linejoin="round"/>
  
  <!-- Checkmark List Lines -->
  <g opacity="0.9">
    <!-- Line 1 with check -->
    <circle cx="200" cy="160" r="12" fill="#4ADE80" stroke="white" stroke-width="3"/>
    <path d="M196 160L199 163L204 157" stroke="white" stroke-width="2.5" stroke-linecap="round" stroke-linejoin="round"/>
    <line x1="225" y1="160" x2="300" y2="160" stroke="white" stroke-width="8" stroke-linecap="round"/>
    
    <!-- Line 2 with check -->
    <circle cx="200" cy="200" r="12" fill="#4ADE80" stroke="white" stroke-width="3"/>
    <path d="M196 200L199 203L204 197" stroke="white" stroke-width="2.5" stroke-linecap="round" stroke-linejoin="round"/>
    <line x1="225" y1="200" x2="320" y2="200" stroke="white" stroke-width="8" stroke-linecap="round"/>
    
    <!-- Line 3 unchecked -->
    <circle cx="200" cy="240" r="12" fill="none" stroke="white" stroke-width="3"/>
    <line x1="225" y1="240" x2="280" y2="240" stroke="white" stroke-width="8" stroke-linecap="round"/>
  </g>
  
  <!-- Gradient Definition -->
  <defs>
    <linearGradient id="gradient" x1="256" y1="0" x2="256" y2="512" gradientUnits="userSpaceOnUse">
      <stop offset="0%" stop-color="#2563EB"/>
      <stop offset="100%" stop-color="#1D4ED8"/>
    </linearGradient>
  </defs>
</svg>
